# xmcd CD database file
#
# Track frame offsets:
#	150
#	36431
#	81009
#	115132
#	171351
#
# Disc length: 2631 seconds
#
# Revision: 6
# Processed by: cddbd v1.5.2PL0 Copyright (c) Steve Scherf et al.
# Submitted via: CDex 1.51
#
DISCID=3a0a4505
DTITLE=Jimmy Smith - Back at the Chicken Shack [Remastered 2007]
DYEAR=1963
DGENRE=Jazz
TTITLE0=Back at the Chicken Shack
TTITLE1=When I Grow Too Old to Dream
TTITLE2=Minor Chant
TTITLE3=Messy Bessie
TTITLE4=On the Sunny Side of the Street
EXTD=Stanley Turrentine: tenor sax\nJimmy Smith: organ\nKenny Burrell: guitar\nDonald Bailey: drums\nRecorded by Rudy Van Gelder at Van Gelder Studio, Englewood Cliffs US-NY, 1960-04-25.\nProduced by Alfred Lion.\nTracks 1-4 originally issued as Blue Not
EXTD=e LP BST 84117 (1963).\nTrack 5 originally issued on Blue Note LP LT-1092 (1979).\nRemastered by Rudy Van Gelder, 2007.\nReissue produced by Michael Cuscuna.\nCD: EMI/Blue Note (RVG Edition) 92777 (2007-09-25), UPC 094639277728. YEAR: 1963
EXTT0=(Jimmy Smith)
EXTT1=(Sigmund Romberg/Oscar Hammerstein II)
EXTT2=(Stanley Turrentine)
EXTT3=(Jimmy Smith)
EXTT4=(Jimmy McHugh/Dorothy Fields)
PLAYORDER=
